<?xml version="1.0" encoding="iso-8859-1"?>
<!-- Generator: Adobe Illustrator 19.0.0, SVG Export Plug-In . SVG Version: 6.00 Build 0)  -->
<svg version="1.1" id="Layer_1" xmlns="http://www.w3.org/2000/svg" xmlns:xlink="http://www.w3.org/1999/xlink" x="0px" y="0px"
	 viewBox="0 0 512.001 512.001" style="enable-background:new 0 0 512.001 512.001;" xml:space="preserve">
<g>
	<g>
		<path d="M268.507,276.727c-0.006-15.057,9.68-29.017,24.807-33.755l25.602-8.018c-9.356-15.126-26.087-25.207-45.18-25.207
			c-29.323,0-53.093,23.77-53.093,53.093s23.77,53.093,53.093,53.093c7.863,0,15.319-1.723,22.032-4.79
			C279.519,307.298,268.515,292.86,268.507,276.727z"/>
	</g>
</g>
<g>
	<g>
		<circle cx="409.042" cy="118.094" r="42.226"/>
	</g>
</g>
<g>
	<g>
		<path d="M511.503,292.68c-3.858-24.727-9.188-57.342-16.395-99.443c-3.006-17.56-19.776-29.294-37.296-26.117l-28.997,5.26
			c-15.104,2.74-26.147,15.817-26.317,31.169l46.736-19.421l-63.999,55.028l-85.48,18.887c-10.317,2.28-16.833,12.491-14.553,22.807
			c2.283,10.335,12.51,16.832,22.809,14.553l90.178-19.924c3.084-0.682,5.95-2.116,8.345-4.174
			c23.421-20.138,16.018-13.772,44.904-38.609l-35.526,44.73l4.272,22.453l-37.816,3.839c-8.844,0.898-16.375,6.82-19.332,15.203
			c-2.957,8.382-0.81,17.719,5.514,23.967l87.658,86.618c9.018,8.911,23.556,8.825,32.466-0.194
			c8.911-9.018,8.825-23.555-0.194-32.466l-51.733-51.119c12.663-2.107,24.774-3.788,38.697-5.449
			c11.183-1.334,21.343-7.16,28.144-16.137C510.389,315.164,513.24,303.808,511.503,292.68z"/>
	</g>
</g>
<g>
	<g>
		<path d="M235.638,432.429c-1.953-1.978-4.665-3.205-7.666-3.205c-0.992,0-1.949,0.145-2.861,0.395
			c-1.664-11.418-11.493-20.188-23.373-20.188c-3.727,0-7.251,0.865-10.386,2.403c-3.441-5.136-8.366-9.189-14.157-11.563
			c14.531-17.393,23.28-39.785,23.28-64.223c0-32.739-15.696-61.807-39.971-80.1c5.639-10.012,8.87-21.56,8.87-33.87
			c0-38.185-30.953-69.136-69.137-69.136s-69.137,30.953-69.137,69.136c0,12.31,3.232,23.859,8.87,33.87
			C15.696,274.241,0,303.311,0,336.049c0,29.057,12.368,55.221,32.121,73.529c-1.286,0.802-2.433,1.805-3.398,2.967
			c-8.928,1.242-15.711,7.298-15.711,14.599l0.001,0.016c-0.131-0.003-0.259-0.016-0.392-0.016c-4.827,0-9.018,2.127-11.185,5.264
			c-0.46,0.665-0.512,1.53-0.137,2.246c0.375,0.716,1.116,1.163,1.924,1.164l230.864,0.315c0.878,0.001,1.67-0.526,2.009-1.335
			C236.435,433.987,236.254,433.053,235.638,432.429z"/>
	</g>
</g>
<g>
</g>
<g>
</g>
<g>
</g>
<g>
</g>
<g>
</g>
<g>
</g>
<g>
</g>
<g>
</g>
<g>
</g>
<g>
</g>
<g>
</g>
<g>
</g>
<g>
</g>
<g>
</g>
<g>
</g>
</svg>
