<?xml version="1.0" encoding="iso-8859-1"?>
<!-- Generator: Adobe Illustrator 19.0.0, SVG Export Plug-In . SVG Version: 6.00 Build 0)  -->
<svg version="1.1" id="Layer_1" xmlns="http://www.w3.org/2000/svg" xmlns:xlink="http://www.w3.org/1999/xlink" x="0px" y="0px"
	 viewBox="0 0 511.998 511.998" style="enable-background:new 0 0 511.998 511.998;" xml:space="preserve">
<g>
	<path style="fill:#E1B658;" d="M221.77,167.9c2.789,0,5.057-2.27,5.057-5.06c0-2.788-2.268-5.057-5.057-5.057
		c-2.789,0-5.057,2.269-5.057,5.057C216.713,165.63,218.982,167.9,221.77,167.9z"/>
	<path style="fill:#E1B658;" d="M262.539,189.851c-1.773-1.89-4.637-2.541-8.621-2.004l-4.357,17.376l15.588-8.716
		C264.897,194.365,264.204,191.626,262.539,189.851z"/>
	<path style="fill:#E1B658;" d="M290.227,167.9c2.789,0,5.057-2.27,5.057-5.06c0-2.788-2.268-5.057-5.057-5.057
		c-2.788,0-5.056,2.269-5.056,5.057C285.172,165.63,287.439,167.9,290.227,167.9z"/>
</g>
<g>
	<path style="fill:#FFFFFF;" d="M256,232.671c28.378,0,55.525-4.174,74.955-11.468c5.632-11.414,8.607-24.146,8.607-36.963
		c0-20.94-7.713-40.776-21.745-56.194c-1.12,0.14-2.257,0.222-3.415,0.222H197.597c-1.159,0-2.297-0.08-3.418-0.222
		c-14.032,15.417-21.743,35.255-21.743,56.195c0,12.813,2.975,25.546,8.609,36.96C200.475,228.496,227.624,232.671,256,232.671z
		 M290.227,147.174c8.638,0,15.666,7.028,15.666,15.666c0,8.64-7.028,15.669-15.666,15.669c-8.638,0-15.665-7.029-15.665-15.669
		C274.563,154.202,281.589,147.174,290.227,147.174z M248.304,178.148c2.892-0.723,5.623-1.09,8.119-1.09
		c7.207,0,11.547,3.048,13.92,5.606c6.107,6.585,5.571,16.226,5.49,17.303c-0.133,1.775-1.148,3.364-2.701,4.232l-29.114,16.279
		c-0.809,0.453-1.7,0.674-2.589,0.674c-1.142,0-2.28-0.368-3.225-1.093c-1.681-1.287-2.435-3.449-1.92-5.502l8.162-32.553
		C244.922,180.105,246.405,178.623,248.304,178.148z M221.77,147.174c8.638,0,15.666,7.028,15.666,15.666
		c0,8.64-7.028,15.669-15.666,15.669s-15.666-7.029-15.666-15.669C206.104,154.202,213.132,147.174,221.77,147.174z"/>
	<path style="fill:#FFFFFF;" d="M197.597,117.659h116.806c9.194,0,16.675-7.48,16.675-16.675s-7.48-16.675-16.675-16.675H197.597
		c-9.196,0-16.676,7.48-16.676,16.675C180.919,110.178,188.401,117.659,197.597,117.659z"/>
	<path style="fill:#FFFFFF;" d="M354.976,74.52c7.46,0,13.531-6.067,13.531-13.528s-6.069-13.531-13.531-13.531
		c-7.459,0-13.528,6.069-13.528,13.531C341.448,68.452,347.517,74.52,354.976,74.52z"/>
</g>
<path style="fill:#FF5240;" d="M302.294,63.661c-1.239-1.416-1.635-3.383-1.04-5.169c0.271-0.815,2.891-8.066,11.069-11.551
	c6.243-2.659,13.741-2.296,22.333,1.073c1.956-3.052,4.575-5.624,7.657-7.535c-9.249-30.331-56.732-29.883-57.218-29.866
	c-29.66,0.001-52.459,11.504-67.859,34.188c-7.504,11.052-11.382,22.235-13.214,28.9h103.303
	C306.195,70.19,304.522,66.207,302.294,63.661z"/>
<g>
	<path style="fill:#E1B658;" d="M256,418.009c-7.071,0-12.825,5.751-12.825,12.821c0,7.07,5.754,12.823,12.825,12.823
		c7.07,0,12.823-5.752,12.823-12.823C268.821,423.76,263.07,418.009,256,418.009z"/>
	<path style="fill:#E1B658;" d="M256,337.935c-7.071,0-12.825,5.754-12.825,12.826c0,7.07,5.754,12.821,12.825,12.821
		c7.07,0,12.823-5.751,12.823-12.821C268.821,343.688,263.07,337.935,256,337.935z"/>
</g>
<path style="fill:#FFFFFF;" d="M344.83,295.573v136.512c0,2.929-2.375,5.304-5.304,5.304c-2.929,0-5.304-2.375-5.304-5.304v-14.441
	c-2.643,1.087-5.679,1.867-8.999,2.271v19.492c0,2.929-2.375,5.304-5.304,5.304c-2.929,0-5.304-2.375-5.304-5.304v-19.492
	c-3.319-0.404-6.356-1.185-8.999-2.271v14.441c0,2.929-2.375,5.304-5.304,5.304s-5.304-2.375-5.304-5.304V306.196
	c-12.141,1.275-25.274,1.964-39.008,1.964c-47.006,0-87.08-8.01-103.839-20.329c-18.22,23.172-28.203,51.906-28.203,81.516
	c0,72.809,59.234,132.043,132.043,132.043s132.043-59.234,132.043-132.043c0-29.609-9.984-58.344-28.204-81.516
	C355.998,290.654,350.921,293.248,344.83,295.573z M256,454.262c-12.922,0-23.434-10.511-23.434-23.431
	c0-12.919,10.513-23.43,23.434-23.43c12.92,0,23.432,10.511,23.432,23.43C279.43,443.751,268.919,454.262,256,454.262z M256,374.191
	c-12.922,0-23.434-10.511-23.434-23.43c0-12.922,10.513-23.435,23.434-23.435c12.92,0,23.432,10.513,23.432,23.435
	C279.43,363.68,268.919,374.191,256,374.191z"/>
<g>
	<path style="fill:#FF5240;" d="M319.918,409.624c8.598,0,13.904-3.176,14.303-4.546V299.061
		c-8.373,2.376-18.012,4.347-28.606,5.838v100.222C305.979,406.428,311.294,409.624,319.918,409.624z"/>
	<path style="fill:#FF5240;" d="M256,297.551c51.414,0,88.732-9.942,99.326-19.69c0.225-5.271-0.746-23.724-21.95-46.237
		c-20.487,7.424-48.409,11.656-77.376,11.656c-28.963,0-56.888-4.232-77.378-11.657c-21.171,22.476-22.174,40.908-21.949,46.242
		C167.275,287.613,204.591,297.551,256,297.551z"/>
</g>
<g>
	<path style="fill:#4F413B;" d="M256,327.326c-12.922,0-23.434,10.513-23.434,23.435c0,12.919,10.513,23.43,23.434,23.43
		c12.92,0,23.432-10.511,23.432-23.43C279.43,337.839,268.919,327.326,256,327.326z M256,363.582
		c-7.071,0-12.825-5.751-12.825-12.821c0-7.073,5.754-12.826,12.825-12.826c7.07,0,12.823,5.754,12.823,12.826
		C268.821,357.831,263.07,363.582,256,363.582z"/>
	<path style="fill:#4F413B;" d="M256,407.4c-12.922,0-23.434,10.511-23.434,23.43c0,12.92,10.513,23.431,23.434,23.431
		c12.92,0,23.432-10.511,23.432-23.431C279.43,417.911,268.919,407.4,256,407.4z M256,443.653c-7.071,0-12.825-5.752-12.825-12.823
		s5.754-12.821,12.825-12.821c7.07,0,12.823,5.751,12.823,12.821C268.821,437.901,263.07,443.653,256,443.653z"/>
	<path style="fill:#4F413B;" d="M221.77,178.509c8.638,0,15.666-7.029,15.666-15.669c0-8.638-7.028-15.666-15.666-15.666
		s-15.666,7.028-15.666,15.666C206.104,171.48,213.132,178.509,221.77,178.509z M221.77,157.783c2.789,0,5.057,2.269,5.057,5.057
		c0,2.79-2.268,5.06-5.057,5.06c-2.789,0-5.057-2.27-5.057-5.06C216.713,160.052,218.982,157.783,221.77,157.783z"/>
	<path style="fill:#4F413B;" d="M290.227,178.509c8.638,0,15.666-7.029,15.666-15.669c0-8.638-7.028-15.666-15.666-15.666
		c-8.638,0-15.665,7.028-15.665,15.666C274.563,171.48,281.589,178.509,290.227,178.509z M290.227,157.783
		c2.789,0,5.057,2.269,5.057,5.057c0,2.79-2.268,5.06-5.057,5.06c-2.788,0-5.056-2.27-5.056-5.06
		C285.172,160.052,287.439,157.783,290.227,157.783z"/>
	<path style="fill:#4F413B;" d="M238.204,220.059c0.945,0.724,2.083,1.093,3.225,1.093c0.889,0,1.78-0.223,2.589-0.674
		l29.114-16.279c1.552-0.868,2.567-2.457,2.701-4.232c0.081-1.077,0.618-10.719-5.49-17.303c-2.372-2.558-6.712-5.606-13.92-5.606
		c-2.497,0-5.228,0.368-8.119,1.09c-1.899,0.474-3.383,1.957-3.858,3.855l-8.162,32.553
		C235.767,216.61,236.523,218.772,238.204,220.059z M253.917,187.847c3.984-0.538,6.85,0.116,8.621,2.004
		c1.666,1.775,2.359,4.513,2.609,6.656l-15.588,8.716L253.917,187.847z"/>
	<path style="fill:#4F413B;" d="M444.747,253.038l-31.854,5.053l6.372-31.619c0.579-2.871-1.28-5.669-4.152-6.247
		c-2.873-0.58-5.67,1.279-6.247,4.152l-7.546,37.445l-28.033,26.372c-2.315-3.343-4.779-6.596-7.388-9.745
		c0.293-7.326-1.174-28.953-24.726-54.016c5.891-12.488,8.999-26.298,8.999-40.191c0-22.099-7.635-43.103-21.593-59.953
		c7.854-4.795,13.108-13.447,13.108-23.303c0-13.66-10.09-25.004-23.207-26.978c-0.984-3.802-2.829-9.504-5.908-14.267
		c0.836-1.08,2.137-2.315,4.054-3.097c3.59-1.463,8.539-0.983,14.419,1.359c-0.123,0.982-0.205,1.976-0.205,2.991
		c0,13.308,10.828,24.136,24.136,24.136c13.311,0,24.14-10.828,24.14-24.136c0-13.311-10.829-24.139-24.14-24.139
		c-0.888,0-1.763,0.055-2.626,0.15C340.654-0.614,287.224-0.042,284.997,0.006c-41.672,0-64.754,21.312-76.779,39.192
		c-9.511,14.142-13.68,28.18-15.266,34.906c-12.841,2.211-22.643,13.419-22.643,26.881c0,9.858,5.257,18.512,13.115,23.307
		c-13.958,16.849-21.601,37.849-21.601,59.95c0,13.893,3.11,27.706,9.003,40.197c-23.546,25.061-25.019,46.687-24.728,54.01
		c-2.61,3.151-5.073,6.403-7.39,9.746l-28.031-26.374l-7.549-37.446c-0.579-2.871-3.377-4.73-6.247-4.15
		c-2.873,0.579-4.73,3.376-4.152,6.249l6.375,31.618l-31.856-5.053c-2.892-0.462-5.611,1.515-6.069,4.407
		c-0.46,2.894,1.515,5.611,4.407,6.069l37.782,5.994l29.541,27.793c-12.719,21.715-19.56,46.579-19.56,72.046
		c0,78.658,63.993,142.652,142.652,142.652s142.652-63.993,142.652-142.652c0-25.467-6.843-50.332-19.563-72.047l29.542-27.792
		l37.779-5.994c2.894-0.46,4.867-3.177,4.407-6.069C450.358,254.551,447.636,252.574,444.747,253.038z M354.976,47.462
		c7.46,0,13.531,6.069,13.531,13.531c0,7.459-6.069,13.528-13.531,13.528c-7.459,0-13.528-6.067-13.528-13.528
		S347.517,47.462,354.976,47.462z M217.236,44.801c15.401-22.684,38.199-34.187,67.859-34.188c0.487-0.018,47.97-0.466,57.22,29.866
		c-3.082,1.911-5.702,4.484-7.657,7.535c-8.592-3.369-16.09-3.732-22.333-1.073c-8.178,3.484-10.797,10.735-11.069,11.551
		c-0.595,1.786-0.199,3.753,1.04,5.169c2.227,2.546,3.901,6.529,5.031,10.04H204.023C205.854,67.037,209.733,55.853,217.236,44.801z
		 M180.919,100.983c0-9.194,7.482-16.675,16.676-16.675h116.806c9.194,0,16.675,7.48,16.675,16.675
		c0,9.196-7.48,16.675-16.675,16.675H197.595C188.401,117.659,180.919,110.178,180.919,100.983z M194.177,128.045
		c1.121,0.141,2.26,0.222,3.418,0.222h116.806c1.156,0,2.295-0.08,3.415-0.222c14.032,15.418,21.745,35.255,21.745,56.194
		c0,12.816-2.975,25.549-8.607,36.963c-19.431,7.295-46.578,11.468-74.955,11.468c-28.374,0-55.525-4.175-74.958-11.469
		c-5.633-11.415-8.609-24.147-8.609-36.96C172.434,163.301,180.145,143.463,194.177,128.045z M178.622,231.624
		c20.489,7.425,48.414,11.657,77.378,11.657c28.967,0,56.89-4.232,77.376-11.656c21.204,22.513,22.175,40.966,21.95,46.237
		c-10.595,9.748-47.912,19.69-99.326,19.69c-51.408,0-88.724-9.939-99.325-19.687C156.448,272.532,157.451,254.1,178.622,231.624z
		 M334.222,299.063v106.016c-0.4,1.37-5.705,4.547-14.303,4.547c-8.624,0-13.939-3.197-14.303-4.501V304.902
		C316.211,303.409,325.849,301.438,334.222,299.063z M388.043,369.348c0,72.809-59.234,132.043-132.043,132.043
		s-132.043-59.234-132.043-132.043c0-29.611,9.984-58.344,28.203-81.516c16.76,12.319,56.833,20.329,103.839,20.329
		c13.733,0,26.866-0.688,39.008-1.964v125.887c0,2.929,2.375,5.304,5.304,5.304s5.304-2.375,5.304-5.304v-14.441
		c2.643,1.087,5.679,1.867,8.999,2.271v19.492c0,2.929,2.375,5.304,5.304,5.304c2.929,0,5.304-2.375,5.304-5.304v-19.492
		c3.319-0.404,6.356-1.185,8.999-2.271v14.441c0,2.929,2.375,5.304,5.304,5.304c2.929,0,5.304-2.375,5.304-5.304v-136.51
		c6.091-2.326,11.168-4.919,15.007-7.741C378.057,311.003,388.043,339.738,388.043,369.348z"/>
</g>
<g>
</g>
<g>
</g>
<g>
</g>
<g>
</g>
<g>
</g>
<g>
</g>
<g>
</g>
<g>
</g>
<g>
</g>
<g>
</g>
<g>
</g>
<g>
</g>
<g>
</g>
<g>
</g>
<g>
</g>
</svg>
